<svg width="640" height="580" viewBox="0 0 640 580" xmlns="http://www.w3.org/2000/svg" role="img" aria-labelledby="loginIllustrationTitle">
  <title id="loginIllustrationTitle">Training CRM Login Illustration</title>
  <defs>
    <linearGradient id="phoneBody" x1="0%" y1="0%" x2="0%" y2="100%">
      <stop offset="0%" stop-color="#fafafa"/>
      <stop offset="100%" stop-color="#e9edf3"/>
    </linearGradient>
    <linearGradient id="accent" x1="0%" y1="0%" x2="0%" y2="100%">
      <stop offset="0%" stop-color="#fce19c"/>
      <stop offset="100%" stop-color="#f5bf62"/>
    </linearGradient>
    <linearGradient id="greenAccent" x1="0%" y1="0%" x2="0%" y2="100%">
      <stop offset="0%" stop-color="#8ad66f"/>
      <stop offset="100%" stop-color="#4e8c3d"/>
    </linearGradient>
  </defs>

  <rect width="640" height="580" fill="none"/>

  <ellipse cx="150" cy="520" rx="140" ry="26" fill="#d8dfea"/>
  <ellipse cx="360" cy="520" rx="120" ry="20" fill="#d8dfea" opacity="0.5"/>

  <g transform="translate(40,80)">
    <rect x="40" y="0" width="220" height="440" rx="36" fill="#1a1a1a"/>
    <rect x="60" y="26" width="180" height="388" rx="24" fill="url(#phoneBody)"/>
    <rect x="120" y="10" width="60" height="8" rx="4" fill="#ccc"/>
    <rect x="110" y="414" width="80" height="12" rx="6" fill="#ccc"/>

    <rect x="80" y="60" width="140" height="60" rx="12" fill="#eef4e6"/>
    <rect x="80" y="132" width="140" height="52" rx="12" fill="#fff7e8"/>
    <rect x="80" y="196" width="140" height="52" rx="12" fill="#eceefe"/>
    <rect x="80" y="260" width="140" height="70" rx="16" fill="#f3f5f9"/>

    <rect x="96" y="72" width="60" height="16" rx="8" fill="#7a9f2c"/>
    <rect x="96" y="96" width="90" height="10" rx="5" fill="#c1cfdb"/>

    <rect x="96" y="142" width="80" height="12" rx="6" fill="#f08b28"/>
    <rect x="96" y="162" width="70" height="10" rx="5" fill="#d5dee7"/>

    <rect x="96" y="206" width="100" height="12" rx="6" fill="#8795b5"/>
    <rect x="96" y="226" width="78" height="10" rx="5" fill="#ced5e2"/>

    <rect x="96" y="276" width="60" height="12" rx="6" fill="#c6cedb"/>
    <rect x="96" y="298" width="110" height="10" rx="5" fill="#dfe4ef"/>
    <rect x="96" y="320" width="75" height="10" rx="5" fill="#dfe4ef"/>

    <circle cx="190" cy="90" r="12" fill="url(#greenAccent)"/>
    <path d="M185 90l4 5 8-10" stroke="#fff" stroke-width="2.5" fill="none" stroke-linecap="round" stroke-linejoin="round"/>

    <rect x="96" y="350" width="56" height="16" rx="8" fill="#f08b28" opacity="0.7"/>
    <rect x="156" y="350" width="56" height="16" rx="8" fill="#7a9f2c" opacity="0.7"/>
  </g>

  <g transform="translate(230,160)">
    <ellipse cx="240" cy="280" rx="110" ry="24" fill="#d8dfea" opacity="0.65"/>
    <path d="M180 270c5-40 12-78 4-122l-10-56c-3-17 9-32 26-32h44c16 0 28 15 26 30l-12 90c-2 16 1 32 6 47l17 51c3 10-3 21-13 24-14 4-29 6-45 6s-31-2-43-6c-11-3-17-15-14-26z" fill="#1f2a37"/>
    <path d="M228 80c18 0 36 10 45 26l14 28c4 7-2 15-10 14l-56-8-13-38c-4-12 5-24 19-24z" fill="#ffb357"/>
    <path d="M150 220l22-108c3-13 13-23 25-27l28-8 18 36-38 122-38-5c-11-1-18-12-17-22z" fill="#f08b28"/>
    <circle cx="232" cy="50" r="34" fill="#ffb357"/>
    <path d="M214 40c6-8 14-12 22-12 10 0 21 6 26 17l6 12c4 9-2 19-11 20-10 2-20-1-28-7l-15-11z" fill="#dc7d22"/>
    <rect x="260" y="230" width="22" height="90" rx="10" fill="#1f2a37"/>
    <rect x="190" y="230" width="22" height="90" rx="10" fill="#1f2a37"/>
    <path d="M198 320c16 0 28 8 31 20h-84c0-14 19-24 53-20z" fill="#8e9bb7"/>
    <path d="M270 320c14 0 26 6 30 16h-70c-1-12 14-18 40-16z" fill="#8e9bb7"/>
    <circle cx="258" cy="148" r="16" fill="#fff"/>
    <path d="M252 148h12" stroke="#7a9f2c" stroke-width="4" stroke-linecap="round"/>
  </g>

  <g transform="translate(60,360)">
    <rect x="0" y="0" width="110" height="130" rx="22" fill="#2c2c2c"/>
    <rect x="14" y="20" width="82" height="78" rx="12" fill="url(#accent)"/>
    <rect x="18" y="108" width="74" height="12" rx="6" fill="#413e3c"/>
    <rect x="25" y="40" width="40" height="8" rx="4" fill="#d3771c"/>
    <rect x="25" y="58" width="54" height="8" rx="4" fill="#dcb271"/>
  </g>
</svg>
